<svg width="173" height="50" viewBox="0 0 173 50" fill="none" xmlns="http://www.w3.org/2000/svg">
<path d="M56.9619 49.2559H16.5106L22.1241 43.7902H43.4699L34.7051 34.8776L36.6747 29.0426L56.9619 49.2559Z" fill="white" stroke="white" stroke-width="0.0510064"/>
<path d="M1 1.02551H41.4513L35.8378 6.49124H14.492L23.2568 15.4038L21.2872 21.2388L1 1.02551Z" fill="white" stroke="white" stroke-width="0.0510064"/>
<path d="M57 1H49.3923H49.2692L1 49.2692L8.71945 49.2313L57 1Z" fill="white"/>
<path d="M57 1L57.018 1.01804L57.0616 0.974497H57V1ZM8.71945 49.2313L8.71957 49.2568L8.73006 49.2568L8.73747 49.2494L8.71945 49.2313ZM1 49.2692L0.981967 49.2512L0.938126 49.295L1.00013 49.2947L1 49.2692ZM49.2692 1V0.974497H49.2586L49.2512 0.981967L49.2692 1ZM49.3923 1.0255H57V0.974497H49.3923V1.0255ZM56.982 0.981957L8.70142 49.2133L8.73747 49.2494L57.018 1.01804L56.982 0.981957ZM8.71932 49.2058L0.999875 49.2437L1.00013 49.2947L8.71957 49.2568L8.71932 49.2058ZM1.01803 49.2872L49.2872 1.01803L49.2512 0.981967L0.981967 49.2512L1.01803 49.2872ZM49.2692 1.0255H49.3923V0.974497H49.2692V1.0255Z" fill="white"/>
<path d="M80.142 29.848V31H69.81V30.082L78.162 19.552H69.936V18.4H79.926V19.318L71.592 29.848H80.142ZM82.7766 18.4H84.1086V31H82.7766V18.4ZM88.2083 18.4H93.3383C94.6703 18.4 95.8463 18.67 96.8663 19.21C97.8863 19.738 98.6783 20.482 99.2423 21.442C99.8063 22.39 100.088 23.476 100.088 24.7C100.088 25.924 99.8063 27.016 99.2423 27.976C98.6783 28.924 97.8863 29.668 96.8663 30.208C95.8463 30.736 94.6703 31 93.3383 31H88.2083V18.4ZM93.2663 29.848C94.3703 29.848 95.3363 29.632 96.1643 29.2C96.9923 28.756 97.6343 28.15 98.0903 27.382C98.5463 26.602 98.7743 25.708 98.7743 24.7C98.7743 23.692 98.5463 22.804 98.0903 22.036C97.6343 21.256 96.9923 20.65 96.1643 20.218C95.3363 19.774 94.3703 19.552 93.2663 19.552H89.5403V29.848H93.2663ZM110.806 27.634H103.786L102.274 31H100.888L106.648 18.4H107.962L113.722 31H112.318L110.806 27.634ZM110.32 26.554L107.296 19.786L104.272 26.554H110.32ZM126.336 18.4V31H125.238L117.138 20.776V31H115.806V18.4H116.904L125.022 28.624V18.4H126.336ZM135.159 18.4H140.289C141.621 18.4 142.797 18.67 143.817 19.21C144.837 19.738 145.629 20.482 146.193 21.442C146.757 22.39 147.039 23.476 147.039 24.7C147.039 25.924 146.757 27.016 146.193 27.976C145.629 28.924 144.837 29.668 143.817 30.208C142.797 30.736 141.621 31 140.289 31H135.159V18.4ZM140.217 29.848C141.321 29.848 142.287 29.632 143.115 29.2C143.943 28.756 144.585 28.15 145.041 27.382C145.497 26.602 145.725 25.708 145.725 24.7C145.725 23.692 145.497 22.804 145.041 22.036C144.585 21.256 143.943 20.65 143.115 20.218C142.287 19.774 141.321 19.552 140.217 19.552H136.491V29.848H140.217ZM158.941 29.848V31H150.031V18.4H158.671V19.552H151.363V24.034H157.879V25.168H151.363V29.848H158.941ZM172.372 18.4L166.792 31H165.478L159.898 18.4H161.338L166.162 29.344L171.022 18.4H172.372Z" fill="white"/>
</svg>
