<svg width="120" height="120" viewBox="0 0 120 120" fill="none" xmlns="http://www.w3.org/2000/svg">
<g id="Group 65">
<circle id="view-bg" cx="60" cy="60" r="60" fill="white"/>
<path id="view-project" d="M37.2877 41.8L41.1277 52.72L44.9277 41.8H47.8277L42.4477 56H39.7877L34.3877 41.8H37.2877ZM49.3433 56V41.8H52.1033V56H49.3433ZM64.9259 53.58V56H55.0659V41.8H64.7459V44.22H57.8259V47.64H63.8059V49.88H57.8259V53.58H64.9259ZM71.9377 41.84H74.4977L76.1177 46.54L77.7577 41.84H80.2977L77.8577 48.3L79.6577 52.82L83.6777 41.8H86.6777L80.9977 56H78.6177L76.1177 50.04L73.6377 56H71.2577L65.5977 41.8H68.5577L72.5977 52.82L74.3577 48.3L71.9377 41.84ZM17.9663 79V64.8H23.9863C24.6397 64.8 25.2397 64.9333 25.7863 65.2C26.3463 65.4667 26.8263 65.8267 27.2263 66.28C27.6263 66.7333 27.9397 67.24 28.1663 67.8C28.393 68.36 28.5063 68.9333 28.5063 69.52C28.5063 70.32 28.3197 71.08 27.9463 71.8C27.573 72.52 27.053 73.1067 26.3863 73.56C25.733 74.0133 24.9663 74.24 24.0863 74.24H20.7263V79H17.9663ZM20.7263 71.82H23.9263C24.433 71.82 24.853 71.6133 25.1863 71.2C25.533 70.7733 25.7063 70.2133 25.7063 69.52C25.7063 68.7867 25.513 68.22 25.1263 67.82C24.7397 67.42 24.2997 67.22 23.8063 67.22H20.7263V71.82ZM30.4273 79V64.8H36.7073C37.3606 64.8 37.9606 64.9333 38.5073 65.2C39.0673 65.4667 39.5473 65.8267 39.9473 66.28C40.3606 66.7333 40.6739 67.24 40.8873 67.8C41.1139 68.36 41.2273 68.9333 41.2273 69.52C41.2273 70.4267 40.9939 71.26 40.5273 72.02C40.0739 72.78 39.4539 73.3267 38.6673 73.66L41.9073 79H38.8673L35.9473 74.24H33.1873V79H30.4273ZM33.1873 71.82H36.6473C37.1673 71.82 37.5939 71.6 37.9273 71.16C38.2739 70.7067 38.4473 70.16 38.4473 69.52C38.4473 69.08 38.3539 68.6867 38.1673 68.34C37.9806 67.9933 37.7406 67.72 37.4473 67.52C37.1673 67.32 36.8606 67.22 36.5273 67.22H33.1873V71.82ZM49.7099 79.1C48.6699 79.1 47.7233 78.9 46.8699 78.5C46.0299 78.1 45.3033 77.56 44.6899 76.88C44.0899 76.1867 43.6233 75.4133 43.2899 74.56C42.9566 73.6933 42.7899 72.8067 42.7899 71.9C42.7899 70.9533 42.9633 70.0533 43.3099 69.2C43.6566 68.3333 44.1433 67.5667 44.7699 66.9C45.3966 66.22 46.1299 65.6867 46.9699 65.3C47.8233 64.9 48.7566 64.7 49.7699 64.7C50.7966 64.7 51.7299 64.9067 52.5699 65.32C53.4233 65.7333 54.1499 66.2867 54.7499 66.98C55.3633 67.6733 55.8299 68.4533 56.1499 69.32C56.4833 70.1733 56.6499 71.0467 56.6499 71.94C56.6499 72.8733 56.4766 73.7733 56.1299 74.64C55.7833 75.4933 55.2966 76.26 54.6699 76.94C54.0566 77.6067 53.3233 78.1333 52.4699 78.52C51.6299 78.9067 50.7099 79.1 49.7099 79.1ZM45.5899 71.9C45.5899 72.7267 45.7499 73.5 46.0699 74.22C46.4033 74.94 46.8766 75.5267 47.4899 75.98C48.1166 76.4333 48.8633 76.66 49.7299 76.66C50.6233 76.66 51.3766 76.4267 51.9899 75.96C52.6033 75.4933 53.0699 74.8933 53.3899 74.16C53.7099 73.4267 53.8699 72.6733 53.8699 71.9C53.8699 71.0733 53.7033 70.3 53.3699 69.58C53.0366 68.86 52.5566 68.28 51.9299 67.84C51.3166 67.3867 50.5833 67.16 49.7299 67.16C48.8366 67.16 48.0833 67.3933 47.4699 67.86C46.8566 68.3267 46.3899 68.9267 46.0699 69.66C45.7499 70.38 45.5899 71.1267 45.5899 71.9ZM57.5979 76.1C57.7712 76.22 58.0779 76.3667 58.5179 76.54C58.9579 76.7 59.4779 76.78 60.0779 76.78C60.7846 76.78 61.3179 76.6267 61.6779 76.32C62.0379 76 62.2779 75.5067 62.3979 74.84C62.5179 74.1733 62.5779 73.3067 62.5779 72.24V64.8H65.3379V72.02C65.3379 73.0867 65.2779 74.06 65.1579 74.94C65.0379 75.82 64.8046 76.58 64.4579 77.22C64.1112 77.86 63.5846 78.3533 62.8779 78.7C62.1846 79.0467 61.2579 79.22 60.0979 79.22C59.4579 79.22 58.8846 79.1467 58.3779 79C57.8712 78.8533 57.4046 78.6333 56.9779 78.34L57.5979 76.1ZM78.0021 76.58V79H68.1421V64.8H77.8221V67.22H70.9021V70.64H76.8821V72.88H70.9021V76.58H78.0021ZM79.0399 71.8C79.0399 70.9333 79.1933 70.08 79.4999 69.24C79.8199 68.4 80.2799 67.64 80.8799 66.96C81.4799 66.28 82.2133 65.74 83.0799 65.34C83.9466 64.9267 84.9333 64.72 86.0399 64.72C87.3333 64.72 88.4599 65.0067 89.4199 65.58C90.3799 66.1533 91.0933 66.9 91.5599 67.82L89.4399 69.28C89.1999 68.7467 88.8866 68.3267 88.4999 68.02C88.1133 67.7133 87.6933 67.4933 87.2399 67.36C86.7999 67.2267 86.3733 67.16 85.9599 67.16C85.2666 67.16 84.6599 67.3 84.1399 67.58C83.6333 67.86 83.2066 68.2267 82.8599 68.68C82.5133 69.1333 82.2533 69.64 82.0799 70.2C81.9199 70.76 81.8399 71.32 81.8399 71.88C81.8399 72.72 82.0133 73.5067 82.3599 74.24C82.7066 74.96 83.1933 75.5467 83.8199 76C84.4466 76.4533 85.1733 76.68 85.9999 76.68C86.4266 76.68 86.8666 76.6067 87.3199 76.46C87.7866 76.3133 88.2133 76.08 88.5999 75.76C88.9866 75.44 89.2866 75.0267 89.4999 74.52L91.7599 75.82C91.4666 76.5267 91.0066 77.1267 90.3799 77.62C89.7533 78.1 89.0466 78.4733 88.2599 78.74C87.4733 78.9933 86.6933 79.12 85.9199 79.12C84.9066 79.12 83.9799 78.9133 83.1399 78.5C82.3133 78.0733 81.5933 77.5133 80.9799 76.82C80.3666 76.1133 79.8866 75.3267 79.5399 74.46C79.2066 73.58 79.0399 72.6933 79.0399 71.8ZM104.231 67.22H99.6909V79H96.9509V67.22H92.4109V64.8H104.231V67.22Z" fill="black"/>
</g>
</svg>
